<svg xmlns="http://www.w3.org/2000/svg" xmlns:xlink="http://www.w3.org/1999/xlink" id="svg" width="400" height="99.35316946959895" viewBox="0, 0, 400,99.35316946959895" version="1.1"><defs xmlns="http://www.w3.org/2000/svg">
    <linearGradient id="TBGreen" gradientTransform="0">
      <stop offset="5%" stop-color="#72e672"/>
      <stop offset="95%" stop-color="#4cb152"/>
    </linearGradient>
  <linearGradient id="TBBrown" gradientTransform="0">
      <stop offset="5%" stop-color="#a77e5b"/>
      <stop offset="95%" stop-color="#a9805c"/>
    </linearGradient></defs><g id="svgg"><path id="path0" d="M396.997 12.312 C 396.492 12.474,395.217 13.027,394.164 13.540 C 392.233 14.482,391.026 15.161,384.504 18.965 C 382.536 20.113,380.173 21.429,379.254 21.889 C 378.335 22.349,376.233 23.561,374.583 24.583 C 369.069 27.999,363.960 30.859,358.583 33.537 C 355.629 35.009,354.637 35.430,352.083 36.290 C 351.533 36.475,350.469 36.901,349.719 37.237 C 348.968 37.573,347.944 37.914,347.444 37.996 C 346.944 38.077,346.170 38.324,345.726 38.545 C 344.365 39.221,341.314 39.885,335.500 40.770 C 329.584 41.670,319.716 40.136,311.833 37.092 C 307.814 35.540,298.881 33.744,293.083 33.323 C 289.551 33.066,271.454 33.068,267.917 33.325 C 260.290 33.880,248.499 36.461,243.821 38.599 C 242.943 39.000,241.140 39.698,239.814 40.151 C 235.321 41.682,226.219 45.883,224.422 47.255 C 223.984 47.589,223.265 47.956,222.826 48.070 C 222.334 48.198,221.556 48.635,220.805 49.205 C 220.133 49.716,217.933 51.164,215.917 52.423 C 211.294 55.311,206.997 58.175,205.167 59.588 C 199.237 64.165,183.387 72.525,176.167 74.883 C 175.204 75.197,173.629 75.761,172.667 76.136 C 161.646 80.430,147.036 80.442,128.333 76.173 C 124.697 75.343,113.843 73.799,106.667 73.092 C 95.772 72.018,51.892 72.125,39.750 73.255 C 27.257 74.418,9.181 77.983,5.583 79.994 C 4.451 80.626,1.014 81.748,0.816 81.549 C 0.579 81.312,0.348 79.662,0.191 77.083 C 0.090 75.427,0.042 78.318,0.024 87.042 L 0.000 99.333 200.000 99.333 L 400.000 99.333 400.000 55.667 L 400.000 12.000 398.958 12.009 C 398.385 12.014,397.503 12.150,396.997 12.312 " stroke="none" fill="url(#TBGreen)" fill-rule="evenodd"/><path id="path1" d="M0.000 36.850 C 0.000 76.103,0.086 80.819,0.816 81.549 C 1.014 81.748,4.451 80.626,5.583 79.994 C 9.181 77.983,27.257 74.418,39.750 73.255 C 51.892 72.125,95.772 72.018,106.667 73.092 C 113.843 73.799,124.697 75.343,128.333 76.173 C 147.036 80.442,161.646 80.430,172.667 76.136 C 173.629 75.761,175.204 75.197,176.167 74.883 C 183.387 72.525,199.237 64.165,205.167 59.588 C 206.997 58.175,211.294 55.311,215.917 52.423 C 217.933 51.164,220.133 49.716,220.805 49.205 C 221.556 48.635,222.334 48.198,222.826 48.070 C 223.265 47.956,223.984 47.589,224.422 47.255 C 226.219 45.883,235.321 41.682,239.814 40.151 C 241.140 39.698,242.943 39.000,243.821 38.599 C 248.499 36.461,260.290 33.880,267.917 33.325 C 271.454 33.068,289.551 33.066,293.083 33.323 C 298.881 33.744,307.814 35.540,311.833 37.092 C 319.716 40.136,329.584 41.670,335.500 40.770 C 341.314 39.885,344.365 39.221,345.726 38.545 C 346.170 38.324,346.944 38.077,347.444 37.996 C 347.944 37.914,348.968 37.573,349.719 37.237 C 350.469 36.901,351.533 36.475,352.083 36.290 C 354.637 35.430,355.629 35.009,358.583 33.537 C 363.960 30.859,369.069 27.999,374.583 24.583 C 376.233 23.561,378.335 22.349,379.254 21.889 C 380.173 21.429,382.536 20.113,384.504 18.965 C 391.112 15.110,392.241 14.478,394.250 13.503 C 396.641 12.344,397.734 12.000,399.030 12.000 L 400.000 12.000 400.000 6.000 L 400.000 0.000 200.000 0.000 L 0.000 0.000 0.000 36.850 " stroke="none" fill="url(#TBBrown)" fill-rule="evenodd"/></g></svg>